<svg version="1.2" xmlns="http://www.w3.org/2000/svg" viewBox="0 0 1024 1024" width="1024" height="1024">
	<title>icon-svg</title>
	<style>
		.s0 { opacity: .7;fill: #131313 } 
		.s1 { fill: #fdfdfd } 
		.s2 { opacity: .7;fill: #121212 } 
		.s3 { fill: #fcfcfc } 
		.s4 { fill: #ababab } 
		.s5 { fill: #bebebe } 
		.s6 { opacity: .8;fill: #161616 } 
		.s7 { fill: #fefefe } 
		.s8 { fill: #cccccc } 
		.s9 { fill: #aaaaaa } 
		.s10 { opacity: .7;fill: #111111 } 
		.s11 { opacity: .7;fill: #141414 } 
		.s12 { fill: #c3c3c3 } 
		.s13 { fill: #a9a9a9 } 
		.s14 { fill: #b0b0b0 } 
	</style>
	<g id="Layer">
		<path id="Layer" fill-rule="evenodd" class="s0" d="m526.5 4.5q3.7-0.3 7 1.5 20.8 20.8 41.5 41.5 1 2.5 0 5-154.9 155.4-308.5 311.5-2.5 1-5 0-22.2-20.7-43.5-42.5-1-2.5 0-5 154-156.3 308.5-312z"/>
	</g>
	<g id="Layer">
		<path id="Layer" fill-rule="evenodd" class="s1" d="m249.5 288.5q6-3 9-9 134.5-136.8 270.5-272 21.5 20.5 43 41 1 1.5 0 3-153.5 156-308 311-22-21.8-43.5-44 14.5-15 29-30z"/>
	</g>
	<g id="Layer">
		<path id="Layer" fill-rule="evenodd" class="s2" d="m163.5 16.5q6.7 0.3 13 2.5 18.3 18.3 36.5 36.5 1 3 0 6-62.8 62.3-124.5 125.5-3 1-6 0-20.8-21.3-42.5-41.5-1-3.5 0-7 61.2-61.9 123.5-122z"/>
	</g>
	<g id="Layer">
		<path id="Layer" fill-rule="evenodd" class="s3" d="m127.5 54.5q5.5-2.5 8-8 12.7-13.4 26-26.5 5.5-1 11 0 20 18.5 39 38-62.2 63.7-125.5 126.5-23.4-20.2-44.5-43 43-43.5 86-87z"/>
	</g>
	<g id="Layer">
		<path id="Layer" fill-rule="evenodd" class="s4" d="m135.5 46.5q-2.5 5.5-8 8 3.5-4.5 8-8z"/>
	</g>
	<g id="Layer">
		<path id="Layer" fill-rule="evenodd" class="s0" d="m307.5 48.5q2.5-0.2 5 0.5 21.3 21.3 42.5 42.5 1.8 2.3 1 5-88.7 89.7-177.5 179.5-3 1-6 0-21.3-21.3-42.5-42.5-1-2.5 0-5 89.1-89.8 177.5-180z"/>
	</g>
	<g id="Layer">
		<path id="Layer" fill-rule="evenodd" class="s3" d="m230.5 130.5q10-7 17-17 30.5-31.5 62-62 23 20.5 44 43-88.5 91.3-179 179.5-20.8-21-42-41.5-1.6-1.3-0.5-3 49.6-49.3 98.5-99z"/>
	</g>
	<g id="Layer">
		<path id="Layer" fill-rule="evenodd" class="s2" d="m803.5 84.5q3-0.2 6 0.5 21.3 21.2 42.5 42.5 1 2.5 0 5-202.8 204.8-405.5 409.5-3 1-6 0-21.3-21.3-42.5-42.5-1-2.5 0-5 203.1-204.9 405.5-410z"/>
	</g>
	<g id="Layer">
		<path id="Layer" fill-rule="evenodd" class="s1" d="m805.5 86.5q22.4 20.1 43.5 42 1 1.5 0 3-202 203.8-403.5 408-1.3 1.6-3 0.5-20.8-20.8-41.5-41.5-1-1.5 0-3 202.6-204.3 404.5-409z"/>
	</g>
	<g id="Layer">
		<path id="Layer" fill-rule="evenodd" class="s5" d="m247.5 113.5q-7 10-17 17 8-9 17-17z"/>
	</g>
	<g id="Layer">
		<path id="Layer" fill-rule="evenodd" class="s0" d="m929.5 137.5q3-0.2 6 0.5 21.3 21.3 42.5 42.5 1 2.5 0 5-220.8 222.8-441.5 445.5-3 1-6 0-21.3-21.3-42.5-42.5-1-2.5 0-5 221.1-222.8 441.5-446z"/>
	</g>
	<g id="Layer">
		<path id="Layer" fill-rule="evenodd" class="s1" d="m785.5 287.5q13.4-11.1 25.5-24 0.7-0.9 0.5-2 60.6-61.1 121-122 21.5 20.7 42.5 42 1 1.5 0 3-176 178-352 356-44.5 44.8-89.5 89-22.2-21.5-44-43.5 148.2-148.9 296-298.5z"/>
	</g>
	<g id="Layer">
		<path id="Layer" fill-rule="evenodd" class="s6" d="m2.5 170.5q1.6-0.2 3 0.5 422.8 418.8 845.5 837.5 0.7 2.4 0.5 5-422.5 1.9-845 3.5-0.8-0.8-1.5-1.5-1.8-373.8-3.5-747.5 0-48.9 1-97.5z"/>
	</g>
	<g id="Layer">
		<path id="Layer" fill-rule="evenodd" class="s7" d="m30.5 1014.5q-11.5 0-23 0 0.5-35.3-1-70-1.5-385.5-2.5-771 422.7 418.2 844.5 837.5-409 2.1-818 3.5z"/>
	</g>
	<g id="Layer">
		<path id="Layer" fill-rule="evenodd" class="s0" d="m489.5 221.5q2.5-0.2 5 0.5 21.8 21.8 43.5 43.5 1 2 0 4-90.8 91.8-181.5 183.5-3 1-6 0-21.3-21.3-42.5-42.5-1-2.5 0-5 91.1-91.8 181.5-184z"/>
	</g>
	<g id="Layer">
		<path id="Layer" fill-rule="evenodd" class="s3" d="m490.5 224.5q1.6-0.2 3 0.5 21.6 21.1 42 43-90.7 91.7-181.5 183.5-22.7-21.2-44.5-43.5 90.8-91.6 181-183.5z"/>
	</g>
	<g id="Layer">
		<path id="Layer" fill-rule="evenodd" class="s8" d="m811.5 261.5q0.2 1.1-0.5 2-12.1 12.9-25.5 24 12.5-13.5 26-26z"/>
	</g>
	<g id="Layer">
		<path id="Layer" fill-rule="evenodd" class="s9" d="m258.5 279.5q-3 6-9 9 4-5 9-9z"/>
	</g>
	<g id="Layer">
		<path id="Layer" fill-rule="evenodd" class="s10" d="m819.5 425.5q2.5-0.2 5 0.5 21.8 21.8 43.5 43.5 1 2 0 4-121.8 122.8-243.5 245.5-2.5 1-5 0-20.8-21.3-42.5-41.5-1-3.5 0-7 121.6-122.3 242.5-245z"/>
	</g>
	<g id="Layer">
		<path id="Layer" fill-rule="evenodd" class="s3" d="m821.5 427.5q21.9 21.2 43.5 43 1.1 1.7-0.5 3-120.7 121-241 242.5-1.5 1-3 0-20.8-20.8-41.5-41.5-1-1 0-2 121.6-122.3 242.5-245z"/>
	</g>
	<g id="Layer">
		<path id="Layer" fill-rule="evenodd" class="s11" d="m949.5 464.5q2.7 0 5 1.5 21.3 21.3 42.5 42.5 1 2.5 0 5-144.3 145.3-288.5 290.5-2.5 1-5 0-21.3-21.3-42.5-42.5-1-3 0-6 144.6-145.3 288.5-291z"/>
	</g>
	<g id="Layer">
		<path id="Layer" fill-rule="evenodd" class="s1" d="m759.5 660.5q9-6 15-15 88.2-88.5 176-177.5 1-1 2 0 20.8 20.8 41.5 41.5 1 1.5 0 3-144.1 144.6-287 290-22.1-22.3-44.5-44 48.5-49 97-98z"/>
	</g>
	<g id="Layer">
		<path id="Layer" fill-rule="evenodd" class="s12" d="m774.5 645.5q-6 9-15 15 7-8 15-15z"/>
	</g>
	<g id="Layer">
		<path id="Layer" fill-rule="evenodd" class="s0" d="m922.5 671.5q2.5-0.2 5 0.5 21.7 21.7 43.5 43.5 0.8 2.7-1 5-85.2 86.7-171.5 172.5-2.5 1-5 0-21.3-21.3-42.5-42.5-1-3 0-6 86.6-85.8 171.5-173z"/>
	</g>
	<g id="Layer">
		<path id="Layer" fill-rule="evenodd" class="s3" d="m924.5 673.5q21.9 21.2 43.5 43 1 1 0 2-84.8 85.8-169.5 171.5-2 1-4 0-20.8-20.8-41.5-41.5-1-1 0-2 86.6-85.8 171.5-173z"/>
	</g>
	<g id="Layer">
		<path id="Layer" fill-rule="evenodd" class="s0" d="m956.5 816.5q3.5-0.2 7 0.5 21.8 21.8 43.5 43.5 1 1.5 0 3-59.1 59.1-118.5 118.5-2.5 1-5 0-21.3-21.3-42.5-42.5-1-3 0-6 58.6-57.8 115.5-117z"/>
	</g>
	<g id="Layer">
		<path id="Layer" fill-rule="evenodd" class="s3" d="m941.5 837.5q6.6-5.1 11-12 3.2-5.5 9-6.5 21.6 21.1 42 43-58.2 59.5-117 118.5-22.2-21.4-44-43.5 48.8-50.5 99-99.5z"/>
	</g>
	<g id="Layer">
		<path id="Layer" fill-rule="evenodd" class="s13" d="m952.5 825.5q-4.4 6.9-11 12 4.4-6.9 11-12z"/>
	</g>
	<g id="Layer">
		<path id="Layer" fill-rule="evenodd" class="s14" d="m6.5 944.5q1.5 34.7 1 70 11.5 0 23 0-11.7 1.5-24 1 0-35.5 0-71z"/>
	</g>
</svg>